<?xml version="1.0" encoding="utf-8"?>
<!-- Generator: Adobe Illustrator 20.1.0, SVG Export Plug-In . SVG Version: 6.00 Build 0)  -->
<svg version="1.1" id="Capa_1" xmlns="http://www.w3.org/2000/svg" xmlns:xlink="http://www.w3.org/1999/xlink" x="0px" y="0px"
	 viewBox="0 0 512 512" style="enable-background:new 0 0 512 512;" xml:space="preserve">
<style type="text/css">
	.st0{fill:#00703C;}
</style>
<g>
	<path class="st0" d="M495,14.1H17c-9.4,0-17,7.6-17,17v449.8c0,9.4,7.6,17,17,17s17-7.6,17-17v-11.1h124.1v11.1c0,9.4,7.6,17,17,17
		c9.4,0,17-7.6,17-17v-11.1h127.6v11.1c0,9.4,7.6,17,17,17c9.4,0,17-7.6,17-17v-11.1h124.1v11.1c0,9.4,7.6,17,17,17
		c9.4,0,17-7.6,17-17V31.1C512,21.7,504.4,14.1,495,14.1z M34.1,48.1h124.1v387.6H34.1V48.1z M192.2,48.1h127.6v387.6H192.2V48.1z
		 M353.9,48.1h124.1v387.6H353.9V48.1z"/>
	<path class="st0" d="M71.2,239.9c3.2-3.2,5-7.6,5-12c0-4.5-1.8-8.9-5-12c-3.2-3.2-7.5-5-12-5c-4.5,0-8.9,1.8-12,5
		c-3.2,3.2-5,7.6-5,12c0,4.5,1.8,8.9,5,12c3.2,3.2,7.6,5,12,5C63.7,244.9,68.1,243.1,71.2,239.9z"/>
	<path class="st0" d="M239.9,239.9c3.2-3.2,5-7.6,5-12c0-4.5-1.8-8.9-5-12c-3.2-3.2-7.5-5-12-5c-4.5,0-8.9,1.8-12,5
		c-3.2,3.2-5,7.6-5,12c0,4.5,1.8,8.9,5,12c3.2,3.2,7.6,5,12,5C232.4,244.9,236.8,243.1,239.9,239.9z"/>
	<path class="st0" d="M397.5,239.9c3.2-3.2,5-7.6,5-12c0-4.5-1.8-8.9-5-12c-3.2-3.2-7.6-5-12-5s-8.9,1.8-12,5s-5,7.6-5,12
		c0,4.5,1.8,8.9,5,12c3.2,3.2,7.6,5,12,5S394.4,243.1,397.5,239.9z"/>
	<path class="st0" d="M124.2,75.4H68c-6.6,0-11.9,5.3-11.9,11.9c0,6.6,5.3,11.9,11.9,11.9h56.2c6.6,0,11.9-5.3,11.9-11.9
		C136.1,80.7,130.8,75.4,124.2,75.4z"/>
	<path class="st0" d="M124.2,328.4H68c-6.6,0-11.9,5.3-11.9,11.9c0,6.6,5.3,11.9,11.9,11.9h56.2c6.6,0,11.9-5.3,11.9-11.9
		C136.1,333.8,130.8,328.4,124.2,328.4z"/>
	<path class="st0" d="M124.2,384.6H68c-6.6,0-11.9,5.3-11.9,11.9c0,6.6,5.3,11.9,11.9,11.9h56.2c6.6,0,11.9-5.3,11.9-11.9
		C136.1,390,130.8,384.6,124.2,384.6z"/>
	<path class="st0" d="M284.1,75.4h-56.2c-6.6,0-11.9,5.3-11.9,11.9c0,6.6,5.3,11.9,11.9,11.9h56.2c6.6,0,11.9-5.3,11.9-11.9
		C296,80.7,290.7,75.4,284.1,75.4z"/>
	<path class="st0" d="M284.1,328.4h-56.2c-6.6,0-11.9,5.3-11.9,11.9c0,6.6,5.3,11.9,11.9,11.9h56.2c6.6,0,11.9-5.3,11.9-11.9
		C296,333.8,290.7,328.4,284.1,328.4z"/>
	<path class="st0" d="M284.1,384.6h-56.2c-6.6,0-11.9,5.3-11.9,11.9c0,6.6,5.3,11.9,11.9,11.9h56.2c6.6,0,11.9-5.3,11.9-11.9
		C296,390,290.7,384.6,284.1,384.6z"/>
	<path class="st0" d="M444,75.4h-56.2c-6.6,0-11.9,5.3-11.9,11.9c0,6.6,5.3,11.9,11.9,11.9H444c6.6,0,11.9-5.3,11.9-11.9
		C455.9,80.7,450.6,75.4,444,75.4z"/>
	<path class="st0" d="M444,328.4h-56.2c-6.6,0-11.9,5.3-11.9,11.9c0,6.6,5.3,11.9,11.9,11.9H444c6.6,0,11.9-5.3,11.9-11.9
		C455.9,333.8,450.6,328.4,444,328.4z"/>
	<path class="st0" d="M444,384.6h-56.2c-6.6,0-11.9,5.3-11.9,11.9c0,6.6,5.3,11.9,11.9,11.9H444c6.6,0,11.9-5.3,11.9-11.9
		C455.9,390,450.6,384.6,444,384.6z"/>
</g>
</svg>
