<?xml version="1.0" encoding="utf-8"?>
<!-- Generator: Adobe Illustrator 21.1.0, SVG Export Plug-In . SVG Version: 6.00 Build 0)  -->
<svg version="1.1" id="Layer_1" xmlns="http://www.w3.org/2000/svg" xmlns:xlink="http://www.w3.org/1999/xlink" x="0px" y="0px"
	 viewBox="0 0 214 162.7" style="enable-background:new 0 0 214 162.7;" xml:space="preserve">
<style type="text/css">
	.st0{display:none;}
	.st1{fill:#00703C;stroke:#00703C;stroke-width:0.25;stroke-miterlimit:10;}
	.st2{fill:#D5A00E;}
	.st3{fill:#00703C;stroke:#00703C;stroke-width:0.5;stroke-miterlimit:10;}
	.st4{fill:#F9F2F2;}
	.st5{fill:#00703C;}
</style>
<g id="actual" class="st0">
</g>
<g id="date">
	<g>
		<path class="st1" d="M95.7,151.9c0.1-0.1,0.2-0.2,0.3-0.3c0.1-0.1,0.3-0.3,0.6-0.6c0.3-0.3,0.4-0.6,0.5-0.8h1.1v7.4
			c0,0.2,0.1,0.3,0.2,0.5c0.1,0.1,0.2,0.2,0.3,0.2v0.2h-2.3v-0.2c0.1,0,0.2-0.1,0.3-0.2s0.2-0.3,0.2-0.5v-5.9
			c-0.3,0.2-0.6,0.4-1,0.6L95.7,151.9z"/>
		<path class="st1" d="M101.7,155.6c-0.2,0-0.5-0.1-0.8-0.2c-0.3-0.1-0.5-0.3-0.8-0.5s-0.5-0.5-0.6-0.8c-0.2-0.3-0.2-0.7-0.2-1.1
			c0-0.9,0.2-1.6,0.7-2.1s1.1-0.8,1.9-0.8c0.6,0,1.2,0.3,1.7,1s0.8,1.5,0.8,2.5c0,0.4,0,0.9-0.1,1.3s-0.2,0.9-0.4,1.3
			s-0.4,0.8-0.6,1.2c-0.3,0.3-0.6,0.6-1,0.8s-0.8,0.3-1.3,0.3h-1.5v-1.4h0.2l0,0l0.1,0.1c0,0,0.1,0.1,0.2,0.1s0.2,0.1,0.3,0.1
			c0.1,0,0.3,0,0.4,0c0.3,0,0.5,0,0.8-0.1c0.2-0.1,0.4-0.2,0.6-0.3s0.3-0.3,0.4-0.4c0.1-0.2,0.2-0.3,0.2-0.5s0.1-0.3,0.1-0.4
			c0-0.1,0.1-0.2,0.1-0.3v-0.1C102.8,155.5,102.3,155.6,101.7,155.6z M101.8,151c-0.4,0-0.7,0.2-0.9,0.5c-0.2,0.3-0.3,0.8-0.3,1.3
			s0.1,0.9,0.3,1.3c0.2,0.4,0.5,0.5,0.8,0.5c0.8,0,1.2-0.6,1.2-1.8c0-0.5-0.1-0.9-0.3-1.3C102.4,151.2,102.1,151,101.8,151z"/>
		<path class="st1" d="M107.6,153.1c0.3,0,0.5,0.1,0.8,0.2c0.3,0.1,0.5,0.3,0.8,0.5s0.5,0.5,0.6,0.8c0.2,0.3,0.2,0.7,0.2,1.1
			c0,0.9-0.2,1.6-0.7,2.1s-1.1,0.8-1.9,0.8c-0.6,0-1.2-0.3-1.7-1s-0.8-1.5-0.8-2.5c0-0.4,0-0.9,0.1-1.3s0.2-0.9,0.4-1.3
			s0.4-0.8,0.6-1.2c0.2-0.3,0.6-0.6,1-0.8s0.8-0.3,1.3-0.3h1.1v1.4h-0.2c0,0,0,0,0-0.1c0,0,0-0.1-0.1-0.1l-0.1-0.1
			c-0.1,0-0.1-0.1-0.2-0.1s-0.2,0-0.4,0c-0.3,0-0.5,0-0.7,0.1s-0.4,0.2-0.5,0.3s-0.3,0.3-0.4,0.4s-0.2,0.3-0.2,0.5
			c-0.1,0.2-0.1,0.3-0.1,0.4c0,0.1-0.1,0.2-0.1,0.3v0.1C106.6,153.1,107,153.1,107.6,153.1z M107.5,157.6c0.4,0,0.7-0.2,0.9-0.5
			c0.2-0.3,0.3-0.8,0.3-1.3s-0.1-0.9-0.3-1.3c-0.2-0.4-0.5-0.5-0.8-0.5c-0.8,0-1.2,0.6-1.2,1.8c0,0.5,0.1,0.9,0.3,1.3
			C106.9,157.4,107.2,157.6,107.5,157.6z"/>
		<path class="st1" d="M113.3,153.1c0.3,0,0.5,0.1,0.8,0.2c0.3,0.1,0.5,0.3,0.8,0.5s0.5,0.5,0.6,0.8c0.2,0.3,0.2,0.7,0.2,1.1
			c0,0.9-0.2,1.6-0.7,2.1s-1.1,0.8-1.9,0.8c-0.6,0-1.2-0.3-1.7-1s-0.8-1.5-0.8-2.5c0-0.4,0-0.9,0.1-1.3s0.2-0.9,0.4-1.3
			s0.4-0.8,0.6-1.2c0.2-0.3,0.6-0.6,1-0.8s0.8-0.3,1.3-0.3h1.1v1.4h-0.2c0,0,0,0,0-0.1c0,0,0-0.1-0.1-0.1l-0.1-0.1
			c-0.1,0-0.1-0.1-0.2-0.1s-0.2,0-0.4,0c-0.3,0-0.5,0-0.7,0.1s-0.4,0.2-0.5,0.3s-0.3,0.3-0.4,0.4s-0.2,0.3-0.2,0.5
			c-0.1,0.2-0.1,0.3-0.1,0.4c0,0.1-0.1,0.2-0.1,0.3v0.1C112.2,153.1,112.7,153.1,113.3,153.1z M113.2,157.6c0.4,0,0.7-0.2,0.9-0.5
			c0.2-0.3,0.3-0.8,0.3-1.3s-0.1-0.9-0.3-1.3c-0.2-0.4-0.5-0.5-0.8-0.5c-0.8,0-1.2,0.6-1.2,1.8c0,0.5,0.1,0.9,0.3,1.3
			C112.6,157.4,112.9,157.6,113.2,157.6z"/>
	</g>
	<polygon class="st2" points="92.2,151.9 92.2,156.9 76.5,151.9 	"/>
	<polygon class="st2" points="119.4,151.9 119.4,156.9 134.8,151.9 	"/>
</g>
<g id="text">
	<g>
		<path class="st3" d="M117.8,103.5c0.9,0,1.8,0.1,2.7,0.4c0.9,0.3,1.5,0.5,1.8,0.8l0.6,0.4l-1.5,2.2l-0.5-0.2c0-0.1,0-0.2,0-0.4
			c0-0.3-0.3-0.6-1-0.9c-0.6-0.3-1.4-0.5-2.2-0.5c-1,0-1.8,0.2-2.5,0.5s-1.1,0.8-1.1,1.4c0,0.4,0.2,0.8,0.5,1.1
			c0.3,0.3,0.8,0.6,1.4,0.8c0.6,0.2,1.2,0.4,1.8,0.6c0.7,0.2,1.3,0.4,2,0.7c0.7,0.3,1.3,0.6,1.8,0.9s1,0.8,1.4,1.3
			c0.3,0.6,0.5,1.2,0.5,1.9c0,0.7-0.2,1.3-0.5,1.8c-0.4,0.5-0.8,1-1.3,1.3s-1.1,0.6-1.7,0.8c-0.6,0.2-1.2,0.4-1.7,0.4
			c-0.5,0.1-0.9,0.1-1.3,0.1c-0.8,0-1.6,0-2.3-0.1c-0.7-0.1-1.3-0.2-1.7-0.4s-0.8-0.3-1.1-0.4s-0.5-0.3-0.6-0.4l-0.2-0.1l1.5-2.3
			l0.5,0.2c0,0.1,0,0.2,0,0.4c0,0.3,0.3,0.6,1,0.9s1.5,0.5,2.5,0.5c1.3,0,2.3-0.2,3.1-0.7c0.8-0.5,1.2-1,1.2-1.6
			c0-0.4-0.2-0.8-0.5-1.1c-0.3-0.3-0.8-0.6-1.3-0.8c-0.5-0.2-1.1-0.4-1.8-0.6c-0.7-0.2-1.3-0.4-2-0.7c-0.7-0.3-1.3-0.6-1.8-0.9
			s-1-0.8-1.3-1.4s-0.5-1.2-0.5-2c0-0.7,0.2-1.3,0.6-1.8s1-0.9,1.6-1.2c0.7-0.3,1.3-0.5,2-0.6C116.6,103.6,117.2,103.5,117.8,103.5z
			"/>
		<path class="st3" d="M141,119.3c-0.3-0.7-1.3-1.1-3.3-1.1c-1.1,0.4-2.3,0.6-3.5,0.6c-2.4,0-4.5-0.7-6.2-2.2s-2.5-3.3-2.5-5.4
			s0.8-4,2.5-5.4c1.7-1.5,3.8-2.2,6.2-2.2s4.5,0.7,6.2,2.2s2.5,3.3,2.5,5.4c0,1.1-0.3,2.2-0.8,3.2s-1.3,1.9-2.2,2.6
			c0.5,0.2,0.9,0.4,1.1,0.8c0.3,0.3,0.4,0.6,0.4,0.9s0,0.5-0.1,0.6H141z M137.1,116.7c0.9-0.5,1.6-1.2,2.2-2.2s0.8-2.1,0.8-3.4
			c0-2-0.5-3.6-1.6-4.6s-2.5-1.5-4.2-1.5s-3.1,0.5-4.2,1.6s-1.6,2.6-1.6,4.6c0,1.9,0.6,3.4,1.7,4.5c1.1,1.1,2.5,1.7,4.1,1.7
			c0.2,0,0.4,0,0.6,0c-0.6-0.5-0.9-1.1-0.9-2c0-0.4,0-0.6,0.1-0.9h0.4c0.3,0.7,0.6,1.2,0.9,1.5C135.7,116.4,136.3,116.6,137.1,116.7
			z"/>
		<path class="st3" d="M159,104c-0.2,0-0.5,0.1-0.7,0.4s-0.3,0.5-0.3,0.8v12c0,0.3,0.1,0.6,0.3,0.8s0.4,0.4,0.7,0.4v0.4h-3.7v-1.6
			c-1.4,1.2-3.1,1.8-4.9,1.8c-0.7,0-1.3-0.1-1.9-0.3s-1-0.5-1.4-0.8s-0.7-0.7-0.9-1.1c-0.3-0.4-0.4-0.8-0.5-1.2
			c-0.1-0.4-0.2-0.8-0.2-1.1v-9.2c0-0.2-0.1-0.5-0.3-0.8s-0.4-0.4-0.7-0.4v-0.4h4.7v0.4c-0.2,0-0.5,0.1-0.7,0.4s-0.3,0.5-0.3,0.8
			v9.2c0,0.2,0,0.5,0.1,0.7c0,0.2,0.1,0.4,0.2,0.7c0.1,0.3,0.3,0.5,0.5,0.7s0.5,0.3,0.9,0.5c0.4,0.1,0.8,0.2,1.3,0.2
			c1.3,0,2.7-0.7,4.2-2.2v-9.6c0-0.2-0.1-0.5-0.3-0.8s-0.4-0.4-0.7-0.4v-0.4h4.7v0.1H159z"/>
		<path class="st3" d="M173.6,117.2c0.1,0.3,0.3,0.6,0.6,0.8s0.6,0.4,0.9,0.4v0.3h-4.7v-0.3c0.2,0,0.4-0.1,0.5-0.2s0.2-0.4,0.2-0.6
			c0-0.1,0-0.2-0.1-0.4V117c0-0.1-0.1-0.3-0.2-0.7c-0.1-0.3-0.3-0.8-0.4-1.4h-5c-0.3,0.8-0.5,1.5-0.7,2.2c0,0.1-0.1,0.2-0.1,0.4
			c0,0.2,0.1,0.5,0.2,0.6s0.3,0.2,0.5,0.2v0.3h-4.7v-0.3c0.3,0,0.6-0.1,0.9-0.4s0.5-0.5,0.6-0.8l3.8-12c0.1-0.5,0.2-0.8,0.2-0.8
			c0-0.3-0.2-0.4-0.5-0.4v-0.3h3.8c0.1,0.2,0.8,2.4,2.2,6.8C172.8,114.8,173.6,117,173.6,117.2z M165.9,113.2h3.9
			c-0.2-0.5-0.5-1.6-1-3.2s-0.8-2.7-1-3.2c-0.2,0.5-0.5,1.6-1,3.3C166.3,111.7,166,112.7,165.9,113.2z"/>
		<path class="st3" d="M183.2,103.5c0.9,0,1.8,0.1,2.7,0.4s1.5,0.5,1.8,0.8l0.6,0.4l-1.5,2.2l-0.5-0.2c0-0.1,0-0.2,0-0.4
			c0-0.3-0.3-0.6-1-0.9c-0.6-0.3-1.4-0.5-2.2-0.5c-1,0-1.8,0.2-2.5,0.5s-1.1,0.8-1.1,1.4c0,0.4,0.2,0.8,0.5,1.1
			c0.3,0.3,0.8,0.6,1.4,0.8c0.6,0.2,1.2,0.4,1.8,0.6c0.7,0.2,1.3,0.4,2,0.7c0.7,0.3,1.3,0.6,1.8,0.9c0.6,0.3,1,0.8,1.4,1.3
			s0.5,1.2,0.5,1.9c0,0.7-0.2,1.3-0.5,1.8c-0.4,0.5-0.8,1-1.3,1.3s-1.1,0.6-1.7,0.8c-0.6,0.2-1.2,0.4-1.7,0.4
			c-0.5,0.1-0.9,0.1-1.3,0.1c-0.8,0-1.6,0-2.3-0.1s-1.3-0.2-1.7-0.4s-0.8-0.3-1.1-0.4s-0.5-0.3-0.6-0.4l-0.2-0.1l1.5-2.3l0.5,0.2
			c0,0.1,0,0.2,0,0.4c0,0.3,0.3,0.6,1,0.9s1.5,0.5,2.5,0.5c1.3,0,2.3-0.2,3.1-0.7s1.2-1,1.2-1.6c0-0.4-0.2-0.8-0.5-1.1
			c-0.3-0.3-0.8-0.6-1.3-0.8c-0.5-0.2-1.1-0.4-1.8-0.6s-1.3-0.4-2-0.7s-1.3-0.6-1.8-0.9s-1-0.8-1.3-1.4s-0.5-1.2-0.5-2
			c0-0.7,0.2-1.3,0.6-1.8c0.4-0.5,1-0.9,1.6-1.2c0.7-0.3,1.3-0.5,2-0.6S182.6,103.5,183.2,103.5z"/>
		<path class="st3" d="M205.5,104c-0.2,0-0.5,0.1-0.7,0.4s-0.3,0.5-0.3,0.8v12c0,0.3,0.1,0.6,0.3,0.8c0.2,0.3,0.4,0.4,0.7,0.4v0.3
			h-4.7v-0.3c0.3,0,0.5-0.1,0.7-0.4s0.3-0.5,0.3-0.8V111h-7.6v6.2c0,0.3,0.1,0.6,0.3,0.8c0.2,0.3,0.4,0.4,0.7,0.4v0.3h-4.7v-0.3
			c0.3,0,0.5-0.1,0.7-0.4s0.3-0.5,0.3-0.8v-12c0-0.2-0.1-0.5-0.3-0.8s-0.4-0.4-0.7-0.4v-0.4h4.7v0.4c-0.2,0-0.5,0.1-0.7,0.4
			s-0.3,0.5-0.3,0.8v4.3h7.6v-4.3c0-0.2-0.1-0.5-0.3-0.8s-0.4-0.4-0.7-0.4v-0.4h4.7V104z"/>
	</g>
	<g>
		<path class="st3" d="M22.3,116l0.5,2.7H11v-0.4c0.3,0,0.5-0.1,0.7-0.4s0.3-0.5,0.3-0.8v-12c0-0.2-0.1-0.5-0.3-0.8
			s-0.4-0.4-0.7-0.4v-0.3h4.7v0.3c-0.2,0-0.5,0.1-0.7,0.4s-0.3,0.5-0.3,0.8v12.1h5.9c0.3,0,0.6-0.1,0.9-0.4s0.5-0.5,0.5-0.8
			L22.3,116L22.3,116z"/>
		<path class="st3" d="M24.7,105.8c1.7-1.5,3.7-2.3,6-2.3s4.3,0.8,6,2.3s2.5,3.3,2.5,5.4s-0.8,3.9-2.5,5.4s-3.7,2.3-6,2.3
			s-4.3-0.8-6-2.3s-2.5-3.3-2.5-5.4S23,107.3,24.7,105.8z M26.7,115.7c1.1,1.1,2.4,1.7,4,1.7c1.6,0,2.9-0.6,4-1.7s1.6-2.7,1.6-4.5
			c0-2-0.5-3.5-1.6-4.6s-2.4-1.6-4-1.6c-1.6,0-3,0.5-4,1.6c-1.1,1.1-1.6,2.6-1.6,4.6C25,113,25.6,114.5,26.7,115.7z"/>
		<path class="st3" d="M53.7,117.2c0,0.3,0.1,0.6,0.3,0.8c0.2,0.3,0.4,0.4,0.7,0.4v0.3h-4.1v-0.3c0.3,0,0.5-0.1,0.7-0.4
			s0.3-0.5,0.3-0.8V116l-8-8.6v9.8c0,0.3,0.1,0.6,0.3,0.8c0.2,0.3,0.4,0.4,0.7,0.4v0.3h-4.1v-0.3c0.3,0,0.5-0.1,0.7-0.4
			s0.3-0.5,0.3-0.8v-11.8c0-0.3-0.1-0.6-0.4-0.9c-0.3-0.3-0.6-0.5-1.1-0.5v-0.3h3.5l8,8.6v-7c0-0.2-0.1-0.5-0.3-0.8
			s-0.4-0.4-0.7-0.4v-0.3h4v0.3c-0.2,0-0.5,0.1-0.7,0.4s-0.3,0.5-0.3,0.8c0,0.2,0,2.2,0,6C53.7,115,53.7,117,53.7,117.2z"/>
		<path class="st3" d="M61.4,103.6c2.4,0,4.4,0.7,6.1,2.2s2.5,3.3,2.5,5.3c0,2.1-0.8,3.9-2.5,5.3c-1.7,1.5-3.7,2.2-6.1,2.2h-5.2
			v-0.4c0.3,0,0.6-0.1,0.7-0.4c0.2-0.2,0.3-0.5,0.3-0.9v-12c0-0.2-0.1-0.5-0.3-0.8s-0.4-0.4-0.7-0.4v-0.4h5.2V103.6z M61.4,117.4
			c1.6,0,3-0.6,4.1-1.8s1.7-2.7,1.7-4.4c0-1.7-0.6-3.1-1.7-4.3c-1.1-1.2-2.5-1.8-4.1-1.8h-1.5v12.3
			C59.9,117.4,61.4,117.4,61.4,117.4z"/>
		<path class="st3" d="M74.5,105.8c1.7-1.5,3.7-2.3,6-2.3s4.3,0.8,6,2.3s2.5,3.3,2.5,5.4s-0.8,3.9-2.5,5.4s-3.7,2.3-6,2.3
			s-4.3-0.8-6-2.3s-2.5-3.3-2.5-5.4S72.8,107.3,74.5,105.8z M76.4,115.7c1.1,1.1,2.4,1.7,4,1.7s2.9-0.6,4-1.7s1.6-2.7,1.6-4.5
			c0-2-0.5-3.5-1.6-4.6s-2.4-1.6-4-1.6s-3,0.5-4,1.6c-1.1,1.1-1.6,2.6-1.6,4.6C74.8,113,75.4,114.5,76.4,115.7z"/>
		<path class="st3" d="M103.5,117.2c0,0.3,0.1,0.6,0.3,0.8c0.2,0.3,0.4,0.4,0.7,0.4v0.3h-4.1v-0.3c0.3,0,0.5-0.1,0.7-0.4
			s0.3-0.5,0.3-0.8V116l-8-8.6v9.8c0,0.3,0.1,0.6,0.3,0.8c0.2,0.3,0.4,0.4,0.7,0.4v0.3h-4.1v-0.3c0.3,0,0.5-0.1,0.7-0.4
			s0.3-0.5,0.3-0.8v-11.8c0-0.3-0.1-0.6-0.4-0.9s-0.6-0.5-1.1-0.5v-0.3h3.5l8,8.6v-7c0-0.2-0.1-0.5-0.3-0.8
			c-0.2-0.3-0.4-0.4-0.7-0.4v-0.3h4v0.3c-0.2,0-0.5,0.1-0.7,0.4s-0.3,0.5-0.3,0.8c0,0.2,0,2.2,0,6C103.5,115,103.5,117,103.5,117.2z
			"/>
	</g>
	<g>
		<path class="st3" d="M33.4,138.4c0,0.1,0.1,0.2,0.2,0.3c0.1,0.1,0.2,0.3,0.5,0.6c0.2,0.3,0.5,0.5,0.7,0.8c0.2,0.2,0.5,0.4,0.8,0.6
			c0.3,0.2,0.6,0.3,0.9,0.3v0.3h-3.6l-1-1.4c-1.1,1-2.4,1.5-4,1.5s-3-0.5-4.1-1.4s-1.6-2.1-1.6-3.5c0-1.1,0.4-2.1,1.1-2.8
			s1.5-1.3,2.5-1.6c-0.6-1.1-0.9-2-0.9-2.8c0-0.9,0.4-1.7,1.1-2.3c0.8-0.6,1.7-1,2.7-1c1.2,0,2.2,0.3,2.9,0.9
			c0.7,0.6,1.1,1.4,1.1,2.4c0,0.5-0.1,0.9-0.3,1.4c-0.2,0.4-0.4,0.7-0.6,1c-0.2,0.2-0.5,0.5-0.9,0.7s-0.7,0.3-0.9,0.4
			c-0.2,0.1-0.5,0.2-0.9,0.3l3.1,4c0.5-0.4,0.7-0.6,0.7-0.8c0-0.3-0.1-0.4-0.4-0.4v-0.3h3.8v0.3c-0.5,0-0.9,0.2-1.4,0.7
			c-0.5,0.4-0.9,0.9-1.2,1.3L33.4,138.4z M28,139.4c0.5,0,1-0.1,1.4-0.2s0.8-0.4,1.3-0.8l-3.6-4.6c-1.4,0.5-2.2,1.4-2.2,2.6
			c0,0.8,0.3,1.5,0.9,2.1C26.4,139.1,27.1,139.4,28,139.4z M28.7,127.7c-0.5,0-0.9,0.2-1.2,0.5c-0.3,0.3-0.5,0.7-0.5,1.1
			c0,0.7,0.4,1.4,1.1,2.1c0.7-0.1,1.3-0.3,1.8-0.6s0.8-0.8,0.8-1.5c0-0.4-0.2-0.8-0.6-1.1C29.6,127.9,29.2,127.7,28.7,127.7z"/>
		<path class="st3" d="M44.7,126.1h11.4l-0.5,2.4h-0.4c0-0.2-0.2-0.4-0.5-0.6c-0.3-0.2-0.6-0.3-0.9-0.3h-5.5v4.3h3.8
			c0.3,0,0.6-0.1,0.9-0.3c0.3-0.2,0.5-0.4,0.5-0.6H54v3.3h-0.4c0-0.2-0.2-0.4-0.5-0.6s-0.6-0.3-0.9-0.3h-3.8v6.2
			c0,0.3,0.1,0.6,0.3,0.8c0.2,0.3,0.4,0.4,0.7,0.4v0.3h-4.7v-0.3c0.3,0,0.5-0.1,0.7-0.4c0.2-0.3,0.3-0.5,0.3-0.8v-12
			c0-0.2-0.1-0.5-0.3-0.8s-0.4-0.4-0.7-0.4C44.7,126.4,44.7,126.1,44.7,126.1z"/>
		<path class="st3" d="M57.4,126.1h4.7v0.3c-0.2,0-0.5,0.1-0.7,0.4s-0.3,0.5-0.3,0.8v12c0,0.3,0.1,0.6,0.3,0.8s0.4,0.4,0.7,0.4v0.4
			h-4.7v-0.4c0.3,0,0.5-0.1,0.7-0.4c0.2-0.3,0.3-0.5,0.3-0.8v-12c0-0.2-0.1-0.5-0.3-0.8s-0.4-0.4-0.7-0.4V126.1z"/>
		<path class="st3" d="M63.4,126.1h12.1l-0.5,2.4h-0.4c0-0.2-0.2-0.4-0.5-0.6c-0.3-0.2-0.6-0.3-0.9-0.3h-2.5v12.1
			c0,0.3,0.1,0.6,0.3,0.8c0.2,0.2,0.4,0.4,0.7,0.4v0.3H67v-0.3c0.3,0,0.5-0.1,0.7-0.4s0.3-0.5,0.3-0.8v-12.1h-2.5
			c-0.3,0-0.6,0.1-0.9,0.3s-0.4,0.4-0.4,0.6h-0.4L63.4,126.1z"/>
		<path class="st3" d="M90.3,139.7c0,0.3,0.1,0.6,0.3,0.8c0.2,0.3,0.4,0.4,0.7,0.4v0.3h-4.1v-0.3c0.3,0,0.5-0.1,0.7-0.4
			c0.2-0.3,0.3-0.5,0.3-0.8v-1.2l-8-8.6v9.8c0,0.3,0.1,0.6,0.3,0.8c0.2,0.3,0.4,0.4,0.7,0.4v0.3h-4.1v-0.3c0.3,0,0.5-0.1,0.7-0.4
			s0.3-0.5,0.3-0.8v-11.8c0-0.3-0.1-0.6-0.4-0.9s-0.6-0.5-1.1-0.5v-0.3h3.5l8,8.6v-7c0-0.2-0.1-0.5-0.3-0.8
			c-0.2-0.3-0.4-0.4-0.7-0.4v-0.3h4v0.3c-0.2,0-0.5,0.1-0.7,0.4s-0.3,0.5-0.3,0.8c0,0.2,0,2.2,0,6C90.3,137.5,90.3,139.5,90.3,139.7
			z"/>
		<path class="st3" d="M104,138.5l0.4,2.7H92.6v-0.4c0.3,0,0.5-0.1,0.7-0.4c0.2-0.3,0.3-0.5,0.3-0.8v-12c0-0.2-0.1-0.5-0.3-0.8
			s-0.4-0.4-0.7-0.4v-0.3H104l-0.4,2.4h-0.4c0-0.2-0.2-0.4-0.5-0.6c-0.3-0.2-0.6-0.3-0.9-0.3h-5.5v4.3h3.9c0.3,0,0.6-0.1,0.9-0.3
			s0.5-0.4,0.5-0.6h0.4v3.3h-0.4c0-0.2-0.2-0.4-0.5-0.6c-0.3-0.2-0.6-0.3-0.9-0.3h-3.9v6.2h5.9c0.3,0,0.6-0.1,0.9-0.4
			c0.3-0.3,0.5-0.5,0.5-0.8h0.4V138.5z"/>
		<path class="st3" d="M112.4,126c0.9,0,1.8,0.1,2.7,0.4c0.9,0.3,1.5,0.5,1.8,0.8l0.6,0.4l-1.5,2.2l-0.5-0.2c0-0.1,0-0.2,0-0.4
			c0-0.3-0.3-0.6-1-0.9c-0.6-0.3-1.4-0.5-2.2-0.5c-1,0-1.8,0.2-2.5,0.5s-1.1,0.8-1.1,1.4c0,0.4,0.2,0.8,0.5,1.1s0.8,0.6,1.4,0.8
			s1.2,0.4,1.8,0.6c0.7,0.2,1.3,0.4,2,0.7s1.3,0.6,1.8,0.9c0.6,0.3,1,0.8,1.4,1.3s0.5,1.2,0.5,1.9s-0.2,1.3-0.5,1.8
			c-0.4,0.5-0.8,1-1.3,1.3s-1.1,0.6-1.7,0.8s-1.2,0.4-1.7,0.4c-0.5,0.1-0.9,0.1-1.3,0.1c-0.8,0-1.6,0-2.3-0.1
			c-0.7-0.1-1.3-0.2-1.7-0.4s-0.8-0.3-1.1-0.4s-0.5-0.3-0.6-0.4l-0.2-0.1l1.5-2.3l0.5,0.2c0,0.1,0,0.2,0,0.4c0,0.3,0.3,0.6,1,0.9
			c0.7,0.3,1.5,0.5,2.5,0.5c1.3,0,2.3-0.2,3.1-0.7c0.8-0.5,1.2-1,1.2-1.6c0-0.4-0.2-0.8-0.5-1.1s-0.8-0.6-1.3-0.8s-1.1-0.4-1.8-0.6
			c-0.7-0.2-1.3-0.4-2-0.7s-1.3-0.6-1.8-0.9c-0.5-0.3-1-0.8-1.3-1.4c-0.3-0.6-0.5-1.2-0.5-2c0-0.7,0.2-1.3,0.6-1.8s1-0.9,1.6-1.2
			c0.7-0.3,1.3-0.5,2-0.6S111.8,126,112.4,126z"/>
		<path class="st3" d="M126.1,126c0.9,0,1.8,0.1,2.7,0.4c0.9,0.3,1.5,0.5,1.8,0.8l0.6,0.4l-1.5,2.2l-0.5-0.2c0-0.1,0-0.2,0-0.4
			c0-0.3-0.3-0.6-1-0.9c-0.6-0.3-1.4-0.5-2.2-0.5c-1,0-1.8,0.2-2.5,0.5s-1.1,0.8-1.1,1.4c0,0.4,0.2,0.8,0.5,1.1s0.8,0.6,1.4,0.8
			s1.2,0.4,1.8,0.6c0.7,0.2,1.3,0.4,2,0.7s1.3,0.6,1.8,0.9s1,0.8,1.4,1.3c0.3,0.6,0.5,1.2,0.5,1.9s-0.2,1.3-0.5,1.8
			c-0.4,0.5-0.8,1-1.3,1.3s-1.1,0.6-1.7,0.8c-0.6,0.2-1.2,0.4-1.7,0.4c-0.5,0.1-0.9,0.1-1.3,0.1c-0.8,0-1.6,0-2.3-0.1
			c-0.7-0.1-1.3-0.2-1.7-0.4s-0.8-0.3-1.1-0.4s-0.5-0.3-0.6-0.4l-0.2-0.1l1.5-2.3l0.5,0.2c0,0.1,0,0.2,0,0.4c0,0.3,0.3,0.6,1,0.9
			c0.7,0.3,1.5,0.5,2.5,0.5c1.3,0,2.3-0.2,3.1-0.7s1.2-1,1.2-1.6c0-0.4-0.2-0.8-0.5-1.1s-0.8-0.6-1.3-0.8s-1.1-0.4-1.8-0.6
			c-0.7-0.2-1.3-0.4-2-0.7s-1.3-0.6-1.8-0.9c-0.5-0.3-1-0.8-1.3-1.4s-0.5-1.2-0.5-2c0-0.7,0.2-1.3,0.6-1.8s1-0.9,1.6-1.2
			c0.7-0.3,1.3-0.5,2-0.6C124.9,126.1,125.5,126,126.1,126z"/>
		<path class="st3" d="M140,133.7c0-1.3,0.4-2.6,1.1-3.8c0.7-1.2,1.8-2.1,3.1-2.8c1.3-0.7,2.8-1.1,4.4-1.1c0.9,0,1.7,0.1,2.5,0.3
			c0.8,0.2,1.4,0.5,1.9,0.7s0.9,0.6,1.3,0.9c0.4,0.3,0.7,0.5,0.8,0.8l0.3,0.3l-2.2,1.8l-0.3-0.2c0.1-0.1,0.1-0.2,0.1-0.4
			c0-0.6-0.4-1.2-1.2-1.8c-0.8-0.6-1.9-0.9-3.2-0.9c-1.6,0-3,0.6-4.1,1.7c-1.1,1.2-1.6,2.6-1.6,4.4c0,1.6,0.5,3,1.6,4.2
			s2.5,1.7,4.2,1.7c0.6,0,1.2,0,1.7-0.1s1-0.2,1.3-0.3s0.7-0.2,1.1-0.4c0.4-0.2,0.6-0.4,0.8-0.5c0.1-0.1,0.4-0.3,0.7-0.6
			s0.6-0.4,0.7-0.5l0.8,0.8c-0.1,0.1-0.1,0.2-0.3,0.4s-0.4,0.4-0.8,0.8s-0.9,0.7-1.4,1s-1.2,0.6-2,0.8s-1.7,0.4-2.6,0.4
			c-1.6,0-3-0.4-4.4-1.1s-2.4-1.7-3.2-2.9C140.4,136.1,140,134.9,140,133.7z"/>
		<path class="st3" d="M168.5,138.5l0.5,2.7h-11.8v-0.4c0.3,0,0.5-0.1,0.7-0.4c0.2-0.3,0.3-0.5,0.3-0.8v-12c0-0.2-0.1-0.5-0.3-0.8
			s-0.4-0.4-0.7-0.4v-0.3h4.7v0.3c-0.2,0-0.5,0.1-0.7,0.4s-0.3,0.5-0.3,0.8v12.1h5.9c0.3,0,0.6-0.1,0.9-0.4c0.3-0.3,0.5-0.5,0.5-0.8
			L168.5,138.5L168.5,138.5z"/>
		<path class="st3" d="M183.5,126.5c-0.2,0-0.5,0.1-0.7,0.4s-0.3,0.5-0.3,0.8v12c0,0.3,0.1,0.6,0.3,0.8s0.4,0.4,0.7,0.4v0.4h-3.7
			v-1.6c-1.4,1.2-3.1,1.8-4.9,1.8c-0.7,0-1.3-0.1-1.9-0.3s-1-0.5-1.4-0.8s-0.7-0.7-0.9-1.1c-0.3-0.4-0.4-0.8-0.5-1.2
			s-0.2-0.8-0.2-1.1v-9.2c0-0.2-0.1-0.5-0.3-0.8s-0.4-0.4-0.7-0.4v-0.4h4.7v0.4c-0.2,0-0.5,0.1-0.7,0.4s-0.3,0.5-0.3,0.8v9.2
			c0,0.2,0,0.5,0.1,0.7s0.1,0.4,0.2,0.7c0.1,0.3,0.3,0.5,0.5,0.7s0.5,0.3,0.9,0.5c0.4,0.1,0.8,0.2,1.3,0.2c1.3,0,2.7-0.7,4.2-2.2
			V128c0-0.2-0.1-0.5-0.3-0.8s-0.4-0.4-0.7-0.4v-0.4h4.7v0.1C183.6,126.5,183.5,126.5,183.5,126.5z"/>
		<path class="st3" d="M193.4,132.9c0.9,0.3,1.7,0.8,2.3,1.4c0.6,0.7,0.9,1.5,0.9,2.4c0,1.4-0.6,2.5-1.8,3.3s-2.8,1.2-4.7,1.2h-5.4
			v-0.3c0.3,0,0.5-0.1,0.7-0.4s0.3-0.5,0.3-0.8v-12.1c0-0.2-0.1-0.5-0.3-0.8s-0.4-0.4-0.7-0.4v-0.3h5.4c0.4,0,0.9,0,1.3,0.1
			c0.5,0.1,0.9,0.2,1.4,0.4c0.5,0.2,0.9,0.4,1.3,0.7c0.4,0.3,0.7,0.6,0.9,1.1c0.2,0.5,0.4,0.9,0.4,1.4
			C195.5,131.3,194.8,132.3,193.4,132.9z M190.3,127.6c-0.3,0-1-0.1-1.9-0.1v4.7h1.6c0.3,0,0.6,0,1-0.1s0.7-0.2,1-0.3
			c0.4-0.2,0.6-0.4,0.9-0.7c0.2-0.3,0.3-0.7,0.3-1.1s-0.1-0.8-0.3-1.1s-0.5-0.6-0.9-0.7c-0.4-0.2-0.7-0.3-0.9-0.4
			C190.8,127.7,190.5,127.6,190.3,127.6z M190.2,139.6c0.3,0,0.7,0,1-0.1c0.4-0.1,0.7-0.2,1.1-0.4c0.4-0.2,0.7-0.5,1-0.8
			c0.2-0.4,0.4-0.8,0.4-1.3s-0.1-1-0.4-1.4s-0.6-0.7-1-0.9s-0.7-0.4-1-0.5s-0.5-0.2-0.8-0.2s-1-0.1-2.1-0.1v5.7H190.2z"/>
	</g>
</g>
<g id="raquet_and_ball">
	<path id="raquet" class="st4" d="M135.6,23.4c0,0-6.5-6-11.5-2.7c0,0-10.9,4.7-15.1,29.7l-20,20l2.8,2.7l19.5-21
		c0,0,22-4,27.7-16.8C139,35.2,141.6,29.4,135.6,23.4z M111.7,49.3c0,0,4.3-25.3,14.7-26.9c0,0,3.2-0.6,6.7,2.3s3.8,5.2,3.8,5.2
		S141.2,42.2,111.7,49.3z"/>
	<path id="raquet_1_" class="st4" d="M74.9,24c0,0-6.4,6.1-3.4,11.3c0,0,4,11.2,28.7,16.9l18.7,21.2l2.8-2.7L102,50
		c0,0-2.6-22.2-15.1-28.6C86.9,21.4,81.2,18.3,74.9,24z M99.3,49.4c0,0-25-5.9-26-16.3c0,0-0.4-3.3,2.7-6.5c3.1-3.3,5.4-3.5,5.4-3.5
		S94,19.5,99.3,49.4z"/>
	<circle id="ball" class="st4" cx="105.5" cy="29.9" r="3.5"/>
</g>
<g id="crest">
	<path id="top_2_" class="st5" d="M149.6,16c0,0-44.3-11-89,0C60.6,16,100.1-9,149.6,16z"/>
	<path id="left_2_" class="st5" d="M60.6,18.9c0,0,12.1,44,43.5,77.6C104.2,96.5,63,74.3,60.6,18.9z"/>
	<path id="right_2_" class="st5" d="M107.7,96.5c0,0,31.9-32.7,44.9-76.8C152.6,19.7,154.2,66.4,107.7,96.5z"/>
</g>
</svg>
