<?xml version="1.0" encoding="utf-8"?>
<!-- Generator: Adobe Illustrator 21.1.0, SVG Export Plug-In . SVG Version: 6.00 Build 0)  -->
<svg version="1.1" id="Capa_1" xmlns="http://www.w3.org/2000/svg" xmlns:xlink="http://www.w3.org/1999/xlink" x="0px" y="0px"
	 viewBox="0 0 512 512" style="enable-background:new 0 0 512 512;" xml:space="preserve">
<style type="text/css">
	.st0{fill:#FFFFFF;}
</style>
<g>
	<g>
		<path class="st0" d="M467,270h-15.2c-2.4-63-28.1-122-73-166.8c-6.9-6.9-15.8-11.3-25.2-12.7c5.3-8.9,8.4-19.4,8.4-30.5
			c0-33.1-26.9-60-60-60s-60,26.9-60,60s26.9,60,60,60c0.3,0,0.6,0,0.9,0l-46.7,70.1l-49.3,24.7c-20.7,10.4-29.8,34.3-22.3,55.3H165
			c-7.4,0-14.3,1.8-20.5,5c-9.5-20.6-30.4-35-54.5-35c-33.1,0-60,26.9-60,60c0,11.1,3.1,21.6,8.4,30.5C16.7,333.7,0,352.4,0,375
			c0,24.8,20.2,45,45,45h15v77c0,8.3,6.7,15,15,15s15-6.7,15-15v-77h214.6c6.2,17.5,22.9,30,42.4,30h75v47c0,8.3,6.7,15,15,15
			s15-6.7,15-15v-47h15c24.8,0,45-20.2,45-45v-90C512,290.2,491.8,270,467,270z M302,90c-16.5,0-30-13.5-30-30s13.5-30,30-30
			s30,13.5,30,30S318.5,90,302,90z M220.3,241.6l52.9-26.4c2.3-1.2,4.3-2.9,5.8-5.1l55.6-83.4c5.2-7.8,16.3-9,23.1-2.3
			c39.2,39.2,61.8,90.6,64.2,145.6h-30c-1.7-33.1-11.9-64.9-29.7-92.7c-2.7-4.3-7.4-6.8-12.5-6.9c0,0-0.1,0-0.1,0
			c-5,0-9.7,2.5-12.5,6.7l-37.4,56.2c-1.4,2.2-3.4,3.9-5.8,5.1l-60,30c-7.4,3.7-16.4,0.7-20.1-6.7
			C209.9,254.3,212.9,245.3,220.3,241.6z M90,270c16.5,0,30,13.5,30,30s-13.5,30-30,30s-30-13.5-30-30S73.5,270,90,270z M302,390H45
			c-8.3,0-15-6.7-15-15s6.7-15,15-15h257V390z M302,330H165c-8.3,0-15-6.7-15-15s6.7-15,15-15h137V330z M297.6,270l9.5-4.7
			c7-3.5,13-8.8,17.3-15.3l23.7-35.5c7.8,17.4,12.4,36.2,13.6,55.5H317H297.6z M482,405c0,8.3-6.7,15-15,15H347c-8.3,0-15-6.7-15-15
			V300c13.8,0,117.3,0,135,0c8.3,0,15,6.7,15,15V405z"/>
	</g>
</g>
</svg>
