<?xml version="1.0" encoding="utf-8"?>
<!-- Generator: Adobe Illustrator 20.1.0, SVG Export Plug-In . SVG Version: 6.00 Build 0)  -->
<svg version="1.1" id="Capa_1" xmlns="http://www.w3.org/2000/svg" xmlns:xlink="http://www.w3.org/1999/xlink" x="0px" y="0px"
	 viewBox="0 0 512 512" style="enable-background:new 0 0 512 512;" xml:space="preserve">
<style type="text/css">
	.st0{fill:#00703C;}
</style>
<g>
	<path class="st0" d="M399.7,351.3c-40.3,0-73.1,32.8-73.1,73.1s32.8,73.1,73.1,73.1s73.1-32.8,73.1-73.1S440.1,351.3,399.7,351.3z
		 M399.7,463.5c-21.6,0-39.1-17.5-39.1-39.1s17.5-39.1,39.1-39.1s39.1,17.5,39.1,39.1S421.3,463.5,399.7,463.5z"/>
	<path class="st0" d="M490.2,106L406,21.8C391.1,6.9,370.8-0.8,349,0.1c-23.8,1-46.7,12.4-62.6,31.2L208,123.9
		c-13.2,15.6-22,33.7-28.4,52.3c-13.9,40.3-62.3,158.7-62.3,158.7L12.4,439.8c-8,8-12.4,18.6-12.4,29.9c0,11.3,4.4,21.9,12.4,29.9
		l0,0c8,8,18.6,12.4,29.9,12.4c11.3,0,21.9-4.4,29.9-12.4l104.9-104.9c0,0,118.4-48.4,158.7-62.3c18.6-6.4,36.7-15.2,52.3-28.4
		l92.6-78.4c18.8-15.9,30.2-38.7,31.2-62.6C512.8,141.2,505.1,120.9,490.2,106z M477.9,161.6c-0.2,3.9-0.8,7.7-1.9,11.5l-25.6-25.6
		L467,131C474.5,139,478.4,149.9,477.9,161.6z M409.4,241.4L383,215.1l19.3-19.3l28,28L409.4,241.4z M368.5,200.6l-21.4-21.4
		l19.3-19.3l21.4,21.4L368.5,200.6z M171.8,360.3l-20-20l30.8-78.4c6,15.3,15,29.2,26.8,40.9s25.6,20.7,40.9,26.8L171.8,360.3z
		 M226.8,155.3l21.9,21.9l-19.3,19.3l-15.7-15.7C216.9,172,221.2,163.4,226.8,155.3z M257.3,118.3l25.2,25.2l-19.3,19.3l-23.6-23.6
		L257.3,118.3z M288.3,81.7l28,28L296.9,129l-26.4-26.4L288.3,81.7z M312.4,53.2c2.3-2.7,4.9-5.2,7.6-7.4L350,75.9l-19.3,19.3
		l-29.2-29.2L312.4,53.2z M269,300.2c-10.1-3.1-19.5-8-28-14.7l24.2-24.2l21.4,21.4L269,300.2z M301,297l6.7,6.7
		c-4.7,0.5-9.4,0.7-14,0.6L301,297z M226.5,271c-6.7-8.5-11.6-18-14.7-28l17.6-17.6l21.4,21.4L226.5,271z M243.9,211l19.3-19.3
		l21.4,21.4l-19.3,19.3L243.9,211z M277.6,177.2l19.3-19.3l21.4,21.4L299,198.6L277.6,177.2z M311.4,143.5l19.3-19.3l21.4,21.4
		l-19.3,19.3L311.4,143.5z M345.1,109.7l19.3-19.3l21.4,21.4l-19.3,19.3L345.1,109.7z M215,211l-7.3,7.3c-0.1-4.6,0.1-9.3,0.6-14
		L215,211z M331.2,298.3l-15.7-15.7l19.3-19.3l21.9,21.9C348.6,290.8,340,295.1,331.2,298.3z M301,268.1l-21.4-21.4l19.3-19.3
		l21.4,21.4L301,268.1z M313.4,213l19.3-19.3l21.4,21.4l-19.3,19.3L313.4,213z M380.9,145.5l19.3-19.3l21.4,21.4l-19.3,19.3
		L380.9,145.5z M414.7,111.7l16.6-16.6l21.4,21.4l-16.6,16.6L414.7,111.7z M416.8,80.8l-16.6,16.6l-21.4-21.4l16.6-16.6L416.8,80.8z
		 M350.4,34.1c0.7,0,1.3,0,2,0c11,0,21,3.9,28.6,11l-16.5,16.5l-25.6-25.6C342.6,34.9,346.5,34.2,350.4,34.1z M48.2,475.5
		c-2.1,2.1-4.6,2.4-5.9,2.4s-3.8-0.3-5.9-2.4c0,0,0,0,0,0c-2.1-2.1-2.4-4.6-2.4-5.9s0.3-3.8,2.4-5.9l95.4-95.4l11.7,11.7L48.2,475.5
		z M372.8,272.4l-23.6-23.6l19.3-19.3l25.2,25.2L372.8,272.4z M458.8,199.6l-12.8,10.9l-29.2-29.2l19.3-19.3l30.1,30.1
		C464,194.8,461.5,197.3,458.8,199.6z"/>
</g>
</svg>
